<?xml version="1.0" encoding="UTF-8" standalone="no"?>
<!DOCTYPE svg PUBLIC "-//W3C//DTD SVG 1.1//EN" "http://www.w3.org/Graphics/SVG/1.1/DTD/svg11.dtd">
<svg version="1.1" xmlns="http://www.w3.org/2000/svg" xmlns:xlink="http://www.w3.org/1999/xlink" preserveAspectRatio="xMidYMid meet" viewBox="0 0 640 556" width="640" height="556"><defs><path d="M81.13 67.48C90.8 67.48 98.64 75.32 98.64 84.98C98.64 168.81 98.64 402.81 98.64 486.65C98.64 496.31 90.8 504.15 81.13 504.15C70.56 504.15 56.33 504.15 45.76 504.15C36.09 504.15 28.26 496.31 28.26 486.65C28.26 402.81 28.26 168.81 28.26 84.98C28.26 75.32 36.09 67.48 45.76 67.48C56.33 67.48 70.56 67.48 81.13 67.48Z" id="bsfECexZB"></path><path d="M607.72 480.92C607.72 493.75 597.32 504.15 584.49 504.15C473.25 504.15 162.73 504.15 51.48 504.15C38.65 504.15 28.26 493.75 28.26 480.92C28.26 471.52 28.26 466.53 28.26 457.13C28.26 444.3 38.65 433.9 51.48 433.9C162.73 433.9 473.25 433.9 584.49 433.9C597.32 433.9 607.72 444.3 607.72 457.13C607.72 466.53 607.72 471.52 607.72 480.92Z" id="bcykq2xjU"></path><path d="M234.24 339.19C234.24 362.11 216.84 380.71 195.41 380.71C173.98 380.71 156.58 362.11 156.58 339.19C156.58 316.27 173.98 297.67 195.41 297.67C216.84 297.67 234.24 316.27 234.24 339.19Z" id="aUWWrDhLf"></path><path d="M287.14 221.02C287.14 243.94 269.74 262.54 248.31 262.54C226.88 262.54 209.49 243.94 209.49 221.02C209.49 198.11 226.88 179.5 248.31 179.5C269.74 179.5 287.14 198.11 287.14 221.02Z" id="b1GL9F6v2y"></path><path d="M409.72 232.06C409.72 254.98 392.32 273.58 370.89 273.58C349.46 273.58 332.06 254.98 332.06 232.06C332.06 209.14 349.46 190.54 370.89 190.54C392.32 190.54 409.72 209.14 409.72 232.06Z" id="bb6oqoARx"></path><path d="M460 131.86C460 154.77 442.6 173.38 421.17 173.38C399.74 173.38 382.34 154.77 382.34 131.86C382.34 108.94 399.74 90.34 421.17 90.34C442.6 90.34 460 108.94 460 131.86Z" id="a3RFSciZA8"></path><path d="M599.78 74.68C599.78 97.6 582.38 116.21 560.95 116.21C539.52 116.21 522.13 97.6 522.13 74.68C522.13 51.77 539.52 33.16 560.95 33.16C582.38 33.16 599.78 51.77 599.78 74.68Z" id="a5HuOtAiD2"></path></defs><g><g><g><use xlink:href="#bsfECexZB" opacity="1" fill="#000000" fill-opacity="1"></use></g><g><use xlink:href="#bcykq2xjU" opacity="1" fill="#000000" fill-opacity="1"></use></g><g><use xlink:href="#aUWWrDhLf" opacity="1" fill="#000000" fill-opacity="1"></use></g><g><use xlink:href="#b1GL9F6v2y" opacity="1" fill="#000000" fill-opacity="1"></use></g><g><use xlink:href="#bb6oqoARx" opacity="1" fill="#000000" fill-opacity="1"></use></g><g><use xlink:href="#a3RFSciZA8" opacity="1" fill="#000000" fill-opacity="1"></use></g><g><use xlink:href="#a5HuOtAiD2" opacity="1" fill="#000000" fill-opacity="1"></use></g></g></g></svg>